<svg xmlns="http://www.w3.org/2000/svg" width="1200" height="720" viewBox="0 0 1200 720" role="img" aria-labelledby="title desc"><title id="title">에어컨 냄새 점검 기준</title><desc id="desc">에어컨 필터와 바람길, 냄새 원인을 점검하는 이미지</desc><defs><linearGradient id="bg" x1="0" y1="0" x2="1" y2="1"><stop stop-color="#eff8f4"/><stop offset="1" stop-color="#f6f0e7"/></linearGradient></defs><rect width="1200" height="720" fill="url(#bg)"/><rect x="185" y="145" width="830" height="210" rx="36" fill="#ffffff" stroke="#d8e2dc" stroke-width="6"/><rect x="255" y="218" width="430" height="42" rx="21" fill="#dfe9e7"/><circle cx="870" cy="250" r="42" fill="#3d7c78"/><path d="M845 250h50M870 225v50" stroke="#fff" stroke-width="10" stroke-linecap="round"/><path d="M300 400c55 35 115 35 170 0s115-35 170 0 115 35 170 0" fill="none" stroke="#7fb8b1" stroke-width="18" stroke-linecap="round" opacity=".65"/><path d="M330 485c45 28 95 28 140 0s95-28 140 0 95 28 140 0" fill="none" stroke="#a5c7a0" stroke-width="15" stroke-linecap="round" opacity=".62"/><g fill="#8d6b4f" opacity=".84"><path d="M245 520c-18-35 28-58 8-95 44 28 68 70 30 113-14 15-30 5-38-18z"/><path d="M925 485c-16-31 25-52 7-85 39 25 60 62 27 100-13 14-27 5-34-15z"/></g><rect x="500" y="520" width="205" height="58" rx="18" fill="#fff" stroke="#d8e2dc" stroke-width="5"/><path d="M535 550h135" stroke="#3d7c78" stroke-width="10" stroke-linecap="round"/></svg>