<svg xmlns="http://www.w3.org/2000/svg" width="1200" height="720" viewBox="0 0 1200 720" role="img" aria-labelledby="title desc"><title id="title">냉감패드 구매 기준</title><desc id="desc">여름 침대 위 냉감패드와 통기성, 세탁 기준을 표현한 이미지</desc><defs><linearGradient id="bg" x1="0" y1="0" x2="1" y2="1"><stop stop-color="#e8f7ff"/><stop offset="1" stop-color="#f7fbef"/></linearGradient><linearGradient id="pad" x1="0" y1="0" x2="1" y2="1"><stop stop-color="#9fd7ef"/><stop offset="1" stop-color="#d7f1e3"/></linearGradient></defs><rect width="1200" height="720" fill="url(#bg)"/><rect x="150" y="170" width="900" height="380" rx="42" fill="#ffffff" stroke="#d6e5ec" stroke-width="6"/><rect x="220" y="240" width="760" height="240" rx="34" fill="url(#pad)"/><path d="M255 300c90 45 150 45 240 0s150-45 240 0 150 45 230 5" fill="none" stroke="#ffffff" stroke-width="16" stroke-linecap="round" opacity=".72"/><path d="M270 380c80 34 145 34 225 0s145-34 225 0 145 34 230 4" fill="none" stroke="#ffffff" stroke-width="16" stroke-linecap="round" opacity=".55"/><circle cx="910" cy="210" r="48" fill="#256d85" opacity=".92"/><path d="M910 182v56M882 210h56" stroke="#fff" stroke-width="12" stroke-linecap="round"/><g fill="#246d85" opacity=".88"><circle cx="250" cy="560" r="12"/><circle cx="310" cy="585" r="8"/><circle cx="870" cy="565" r="10"/><circle cx="930" cy="590" r="7"/></g><g stroke="#2f7f99" stroke-width="10" stroke-linecap="round" opacity=".7"><path d="M165 120h120"/><path d="M915 120h120"/><path d="M520 610h160"/></g></svg>