<svg xmlns="http://www.w3.org/2000/svg" viewBox="0 0 1200 630" role="img" aria-labelledby="title desc"><title id="title">음식물처리기 구매 전 점검 이미지</title><desc id="desc">작은 주방에서 음식물처리기와 관리 체크리스트를 비교하는 장면</desc><defs><linearGradient id="bg" x1="0" x2="1" y1="0" y2="1"><stop offset="0" stop-color="#f8fbff"/><stop offset="1" stop-color="#fff4e6"/></linearGradient><linearGradient id="bin" x1="0" x2="0" y1="0" y2="1"><stop offset="0" stop-color="#d8f3dc"/><stop offset="1" stop-color="#95d5b2"/></linearGradient></defs><rect width="1200" height="630" fill="url(#bg)"/><rect x="104" y="402" width="992" height="86" rx="30" fill="#d6b98f" opacity=".42"/><rect x="180" y="155" width="280" height="300" rx="42" fill="url(#bin)" stroke="#3f7d5a" stroke-width="10"/><rect x="224" y="118" width="192" height="64" rx="24" fill="#eef8ef" stroke="#3f7d5a" stroke-width="10"/><circle cx="320" cy="304" r="70" fill="#f8fff8" opacity=".72"/><path d="M285 298h70M320 263v70" stroke="#3f7d5a" stroke-width="14" stroke-linecap="round"/><rect x="554" y="176" width="300" height="248" rx="34" fill="#ffffff" stroke="#b6c2d0" stroke-width="8"/><path d="M604 238h190M604 300h190M604 362h150" stroke="#334155" stroke-width="14" stroke-linecap="round"/><path d="M574 236l18 18 32-40M574 298l18 18 32-40M574 360l18 18 32-40" fill="none" stroke="#2f9e44" stroke-width="10" stroke-linecap="round" stroke-linejoin="round"/><rect x="910" y="235" width="130" height="186" rx="24" fill="#ffe6cc" stroke="#d97706" stroke-width="8"/><path d="M946 260h58M948 292h52" stroke="#d97706" stroke-width="10" stroke-linecap="round"/><circle cx="955" cy="366" r="22" fill="#f59e0b"/><path d="M1032 340c32 20 47 45 45 76" fill="none" stroke="#64748b" stroke-width="8" stroke-linecap="round"/><path d="M135 109h226" stroke="#334155" stroke-width="14" stroke-linecap="round"/><path d="M135 137h168" stroke="#94a3b8" stroke-width="10" stroke-linecap="round"/></svg>
