<svg xmlns="http://www.w3.org/2000/svg" viewBox="0 0 1200 630" role="img" aria-labelledby="title desc"><title id="title">초파리 원인 점검 이미지</title><desc id="desc">여름 주방의 과일, 배수구, 음식물 쓰레기 주변을 점검하는 장면</desc><defs><linearGradient id="bg" x1="0" x2="1" y1="0" y2="1"><stop offset="0" stop-color="#f7fbff"/><stop offset="1" stop-color="#eef7ed"/></linearGradient><linearGradient id="sink" x1="0" x2="1"><stop offset="0" stop-color="#d9e8ef"/><stop offset="1" stop-color="#f5fbff"/></linearGradient></defs><rect width="1200" height="630" fill="url(#bg)"/><rect x="110" y="378" width="980" height="86" rx="28" fill="#d5c3a1" opacity=".48"/><rect x="165" y="238" width="360" height="190" rx="32" fill="url(#sink)" stroke="#8aa7b1" stroke-width="8"/><circle cx="345" cy="333" r="55" fill="#b8d0d8" stroke="#6f8d98" stroke-width="8"/><circle cx="345" cy="333" r="16" fill="#5c7680"/><path d="M720 420c-118 0-214-62-214-138h428c0 76-96 138-214 138Z" fill="#f2f0df" stroke="#8d9775" stroke-width="8"/><circle cx="650" cy="274" r="46" fill="#f2c14e"/><circle cx="723" cy="257" r="52" fill="#e66b4a"/><circle cx="788" cy="284" r="44" fill="#7fb069"/><path d="M704 201c35 4 57 21 67 52" fill="none" stroke="#557153" stroke-width="10" stroke-linecap="round"/><rect x="870" y="278" width="130" height="150" rx="22" fill="#f8e6cf" stroke="#b9835b" stroke-width="8"/><path d="M902 308h66M902 338h66M902 368h46" stroke="#b9835b" stroke-width="8" stroke-linecap="round"/><g fill="#263238"><circle cx="582" cy="216" r="8"/><circle cx="611" cy="188" r="7"/><circle cx="566" cy="303" r="7"/><circle cx="949" cy="226" r="8"/><circle cx="996" cy="252" r="7"/><circle cx="880" cy="215" r="6"/></g><g stroke="#263238" stroke-width="4" stroke-linecap="round"><path d="M582 216l18-14M582 216l-18-14M949 226l17-13M949 226l-18-13M611 188l16-12M611 188l-17-13"/></g><rect x="130" y="120" width="270" height="76" rx="24" fill="#ffffff" opacity=".86"/><path d="M170 158h180" stroke="#334155" stroke-width="12" stroke-linecap="round"/><path d="M170 181h132" stroke="#94a3b8" stroke-width="10" stroke-linecap="round"/></svg>
