<svg xmlns="http://www.w3.org/2000/svg" width="1200" height="675" viewBox="0 0 1200 675" role="img" aria-labelledby="title desc"><title id="title">쇼츠 부업 7일 주제 테스트 루틴</title><desc id="desc">휴대폰과 7일 체크리스트, 주제 메모를 담은 대표 이미지</desc><defs><linearGradient id="bg" x1="0" y1="0" x2="1" y2="1"><stop offset="0" stop-color="#edf7f5"/><stop offset="0.55" stop-color="#fff7ed"/><stop offset="1" stop-color="#e0f2fe"/></linearGradient><filter id="shadow" x="-20%" y="-20%" width="140%" height="140%"><feDropShadow dx="0" dy="18" stdDeviation="22" flood-color="#164e63" flood-opacity="0.16"/></filter></defs><rect width="1200" height="675" rx="0" fill="url(#bg)"/><circle cx="1010" cy="120" r="120" fill="#14b8a6" opacity="0.12"/><circle cx="130" cy="560" r="150" fill="#f59e0b" opacity="0.13"/><g filter="url(#shadow)"><rect x="120" y="105" width="430" height="465" rx="34" fill="#ffffff"/><rect x="155" y="150" width="360" height="70" rx="18" fill="#0f766e" opacity="0.12"/><rect x="170" y="245" width="330" height="34" rx="17" fill="#dbeafe"/><rect x="170" y="300" width="275" height="34" rx="17" fill="#fef3c7"/><rect x="170" y="355" width="310" height="34" rx="17" fill="#ccfbf1"/><rect x="170" y="430" width="140" height="78" rx="18" fill="#0f766e" opacity="0.88"/><rect x="330" y="430" width="150" height="78" rx="18" fill="#0f3b57" opacity="0.9"/></g><g filter="url(#shadow)"><rect x="665" y="92" width="270" height="500" rx="42" fill="#111827"/><rect x="690" y="132" width="220" height="420" rx="26" fill="#f8fafc"/><circle cx="800" cy="567" r="12" fill="#475569"/><rect x="725" y="170" width="150" height="28" rx="14" fill="#0f766e" opacity="0.2"/><rect x="725" y="225" width="150" height="120" rx="20" fill="#e0f2fe"/><path d="M760 304l31-42 28 34 18-22 32 30z" fill="#0ea5e9" opacity="0.7"/><rect x="725" y="375" width="150" height="22" rx="11" fill="#cbd5e1"/><rect x="725" y="415" width="115" height="22" rx="11" fill="#cbd5e1"/><rect x="725" y="455" width="140" height="44" rx="18" fill="#f59e0b" opacity="0.82"/></g><g><rect x="520" y="165" width="230" height="78" rx="20" fill="#ffffff" filter="url(#shadow)"/><rect x="545" y="190" width="34" height="28" rx="9" fill="#0f766e"/><rect x="596" y="190" width="120" height="14" rx="7" fill="#64748b" opacity="0.45"/><rect x="596" y="214" width="90" height="12" rx="6" fill="#94a3b8" opacity="0.45"/><rect x="505" y="285" width="220" height="78" rx="20" fill="#ffffff" filter="url(#shadow)"/><rect x="530" y="310" width="34" height="28" rx="9" fill="#f59e0b"/><rect x="581" y="310" width="112" height="14" rx="7" fill="#64748b" opacity="0.45"/><rect x="581" y="334" width="78" height="12" rx="6" fill="#94a3b8" opacity="0.45"/><rect x="535" y="405" width="255" height="78" rx="20" fill="#ffffff" filter="url(#shadow)"/><rect x="560" y="430" width="34" height="28" rx="9" fill="#0ea5e9"/><rect x="611" y="430" width="136" height="14" rx="7" fill="#64748b" opacity="0.45"/><rect x="611" y="454" width="96" height="12" rx="6" fill="#94a3b8" opacity="0.45"/></g><g font-family="Arial, sans-serif" fill="#0f172a"><text x="120" y="72" font-size="30" font-weight="700">TrendFlow</text><text x="120" y="620" font-size="26" font-weight="700" fill="#0f3b57">7 days topic test before gear</text><text x="120" y="650" font-size="18" fill="#475569">topic · routine · friction check</text></g></svg>